<svg width="155" height="24" viewBox="0 0 155 24" fill="none" xmlns="http://www.w3.org/2000/svg">
<g clip-path="url(#clip0_1203_139823)">
<path d="M80.5855 6.13935C82.8657 6.13935 84.5955 7.46499 84.7525 9.8823L76.1042 9.88296V9.8823C76.6546 7.62041 78.1485 6.13935 80.5855 6.13935ZM122.569 6.13935C124.927 6.13935 126.578 7.46499 126.814 9.8823L118.166 9.88296V9.8823C118.716 7.62041 120.132 6.13935 122.569 6.13935ZM9.12001 6.13935C13.68 6.37313 14.7806 8.24479 14.7806 9.80394C14.7806 12.065 13.2867 13.7801 9.12001 13.8581V6.13935ZM55.5057 6.29495C59.9872 6.52939 61.0879 8.4004 61.0879 9.95954C61.0879 12.1425 59.5944 13.8581 55.5057 13.9362V6.29495ZM34.7502 6.84126C37.8947 6.84126 39.9388 9.25791 39.9388 12.2206C39.9388 15.2615 37.8947 17.6782 34.7502 17.6782C31.5268 17.6782 29.4826 15.2615 29.4826 12.2206C29.4826 9.25791 31.5268 6.84126 34.7502 6.84126ZM152.415 21.233L152.408 21.2332C152.409 21.233 152.41 21.233 152.411 21.233H152.415ZM152.229 21.2613L152.38 21.2614V21.2618H152.408C152.435 21.2616 152.461 21.2616 152.486 21.2616C152.571 21.2616 152.629 21.2623 152.64 21.2631V21.2634C152.738 21.2706 152.796 21.2935 152.834 21.3316V21.3317C152.872 21.3692 152.891 21.4195 152.891 21.4994C152.891 21.6101 152.855 21.6757 152.785 21.7112C152.768 21.72 152.733 21.7324 152.711 21.7366C152.662 21.7463 152.63 21.7489 152.474 21.7489C152.435 21.7489 152.438 21.7489 152.392 21.7488V21.7489L152.23 21.7483L152.229 21.5046V21.2613ZM152.952 22.033L152.953 22.0342V22.0345L152.952 22.033L152.951 22.0334C152.951 22.033 152.951 22.033 152.951 22.033H152.952ZM152.111 20.8801V20.8804C152.105 20.8804 152.098 20.8804 152.092 20.8804C151.953 20.8804 151.84 20.882 151.84 20.882V20.8824L151.813 20.8826V20.9103C151.812 21.3595 151.812 21.92 151.812 21.92L151.813 22.927V22.9551L151.841 22.9553L152.02 22.956V22.9561L152.2 22.9563H152.229V22.928V22.5128V22.513L152.23 22.1255L152.389 22.1251V22.1254L152.556 22.1247L152.558 22.1251C152.587 22.1964 152.773 22.654 152.854 22.8533V22.8534L152.888 22.9385L152.896 22.9563L152.915 22.9564L153.114 22.9563L153.115 22.9564C153.272 22.9563 153.313 22.9537 153.314 22.9537L153.354 22.9509L153.338 22.9142L153.026 22.2019C152.998 22.1377 152.977 22.0874 152.964 22.0591H152.962C153.048 22.023 153.121 21.9729 153.174 21.9115C153.249 21.8243 153.291 21.7195 153.305 21.5872V21.5876L153.306 21.5766C153.31 21.5422 153.31 21.4528 153.306 21.4207C153.293 21.2917 153.257 21.1914 153.191 21.1073C153.173 21.0846 153.126 21.0396 153.102 21.0215C152.996 20.9427 152.86 20.8998 152.676 20.8834C152.652 20.8812 152.367 20.8801 152.14 20.8801H152.111ZM152.496 20.4254V20.4256H152.527L152.528 20.4259C152.528 20.4259 152.528 20.4259 152.529 20.4259C153.361 20.4259 154.035 21.0948 154.036 21.9202V21.921C154.036 22.7473 153.36 23.417 152.527 23.417V23.4172C151.695 23.417 151.019 22.7473 151.019 21.921C151.019 21.1058 151.676 20.4428 152.494 20.4254H152.496ZM7.93067 0.276386C5.25093 0.276386 1.62907 0.469294 0 0.603661L0.157241 6.21753L1.96543 6.13935V23.7596L9.12001 23.7609V19.3155C19.5765 18.8474 22.0135 13.39 22.0135 9.56978C22.0135 4.11208 17.4537 0.681932 9.12001 0.291796C8.75484 0.281178 8.35451 0.276386 7.93067 0.276386ZM54.3155 0.510731C51.6526 0.510731 48.0927 0.703264 46.4646 0.837538L46.6218 6.45121L48.43 6.29495V23.7596L55.5057 23.7609V19.3935C65.8837 18.9254 68.2425 13.4681 68.2425 9.72604C68.2425 4.26834 63.761 0.915527 55.5057 0.526329C55.1392 0.515617 54.7387 0.510731 54.3155 0.510731ZM97.0955 1.46108L89.3125 1.4624L97.5673 17.6001V23.7596L105.037 23.7609V17.6001L113.764 1.46108L105.822 1.4624L101.341 10.8951L97.0955 1.46108ZM152.496 20.0294V20.0301L152.494 20.0304C151.457 20.047 150.62 20.8866 150.62 21.92V21.921C150.62 22.9658 151.474 23.8127 152.527 23.8127C153.581 23.8127 154.435 22.9658 154.435 21.921C154.435 20.8763 153.581 20.0294 152.527 20.0294H152.496ZM34.6715 0.759924C28.0673 0.759924 22.6427 5.51571 22.6427 12.2987C22.6427 19.0819 28.0673 23.8376 34.6715 23.8376C41.2756 23.8376 46.7004 19.0819 46.7004 12.2987C46.7004 5.51571 41.1971 0.759924 34.6715 0.759924ZM143.168 0.526329C138.135 0.526329 134.205 2.86481 134.205 7.62041C134.205 11.2852 136.013 13.0786 139.551 14.6378C140.573 15.0273 141.909 15.4171 142.932 15.807C143.797 16.1971 144.346 16.5863 144.346 17.2884C144.346 17.9121 143.797 18.4581 142.067 18.4581C140.495 18.4581 138.215 17.8346 136.563 16.8208L134.205 21.6546C136.485 23.292 139.236 23.9157 142.067 23.9157C146.47 23.9157 151.187 22.0442 151.187 17.0544C151.187 13.3124 148.75 11.5188 146.155 10.5052C144.818 9.95954 143.325 9.41417 142.303 8.94604C141.36 8.556 140.966 8.08853 140.966 7.46499C140.966 6.52939 141.909 6.06126 143.089 6.06126C144.897 6.06126 146.312 6.91934 147.57 8.24479L151.501 4.19026C149.85 1.92921 146.863 0.526329 143.168 0.526329ZM80.5069 0.603661C73.6672 0.603661 68.8711 5.51571 68.8711 12.2987C68.8711 19.0038 73.3525 24.0713 81.2932 24.0713C84.831 24.0713 87.8975 23.2139 90.4131 21.3429L87.5828 16.3527C85.7745 17.6001 83.8089 18.2238 81.5291 18.3017C78.6204 18.3017 76.8119 16.8989 76.1829 14.6379H76.1838L91.3568 14.6386C91.5137 13.546 91.5925 12.5325 91.5925 11.4414C91.5925 6.685 88.998 0.603661 80.5069 0.603661ZM122.569 0.603661C115.65 0.603661 110.855 5.51571 110.855 12.2987C110.855 19.0038 115.493 24.0713 123.277 24.0713C126.5 24.0713 129.252 23.3696 131.61 21.8102L129.016 16.6644C127.365 17.7565 125.557 18.3017 123.512 18.3017C120.682 18.3017 118.874 16.9765 118.245 14.6379H118.246L133.418 14.6386C133.576 13.546 133.654 12.5325 133.654 11.5188C133.576 6.685 130.981 0.603661 122.569 0.603661Z" fill="#FF7D00"/>
</g>
<defs>
<clipPath id="clip0_1203_139823">
<rect width="154.435" height="24" fill="white"/>
</clipPath>
</defs>
</svg>
